<svg width="25" height="25" viewBox="0 0 25 25" fill="none" xmlns="http://www.w3.org/2000/svg">
<path d="M20.7287 2.06152H4.37033C3.77872 2.06152 3.21133 2.29654 2.793 2.71487C2.37467 3.13321 2.13965 3.70059 2.13965 4.2922L2.13965 20.6505C2.13965 21.2421 2.37467 21.8095 2.793 22.2279C3.21133 22.6462 3.77872 22.8812 4.37033 22.8812H10.7487V15.803H7.82091V12.4714H10.7487V9.93211C10.7487 7.04384 12.4682 5.44844 15.1018 5.44844C16.363 5.44844 17.6819 5.67337 17.6819 5.67337V8.50819H16.2287C14.7969 8.50819 14.3503 9.39674 14.3503 10.3081V12.4714H17.5467L17.0355 15.803H14.3503V22.8812H20.7287C21.3203 22.8812 21.8876 22.6462 22.306 22.2279C22.7243 21.8095 22.9593 21.2421 22.9593 20.6505V4.2922C22.9593 3.70059 22.7243 3.13321 22.306 2.71487C21.8876 2.29654 21.3203 2.06152 20.7287 2.06152Z" fill="white"/>
</svg>

