<svg width="25" height="25" viewBox="0 0 25 25" fill="none" xmlns="http://www.w3.org/2000/svg">
<path d="M12.8838 7.21231C9.92814 7.21231 7.5441 9.59635 7.5441 12.552C7.5441 15.5077 9.92814 17.8917 12.8838 17.8917C15.8394 17.8917 18.2235 15.5077 18.2235 12.552C18.2235 9.59635 15.8394 7.21231 12.8838 7.21231ZM12.8838 16.0235C10.9738 16.0235 9.4123 14.4667 9.4123 12.552C9.4123 10.6373 10.9691 9.0805 12.8838 9.0805C14.7985 9.0805 16.3553 10.6373 16.3553 12.552C16.3553 14.4667 14.7938 16.0235 12.8838 16.0235ZM19.6874 6.99389C19.6874 7.68633 19.1297 8.23935 18.4419 8.23935C17.7495 8.23935 17.1964 7.68168 17.1964 6.99389C17.1964 6.30609 17.7541 5.74842 18.4419 5.74842C19.1297 5.74842 19.6874 6.30609 19.6874 6.99389ZM23.2239 8.25794C23.1449 6.58958 22.7639 5.11175 21.5416 3.89417C20.324 2.67659 18.8462 2.29552 17.1779 2.21187C15.4584 2.11427 10.3046 2.11427 8.58509 2.21187C6.92137 2.29087 5.44355 2.67194 4.22132 3.88952C2.99909 5.1071 2.62267 6.58493 2.53901 8.25329C2.44142 9.97277 2.44142 15.1266 2.53901 16.8461C2.61802 18.5144 2.99909 19.9922 4.22132 21.2098C5.44355 22.4274 6.91672 22.8085 8.58509 22.8921C10.3046 22.9897 15.4584 22.9897 17.1779 22.8921C18.8462 22.8131 20.324 22.4321 21.5416 21.2098C22.7592 19.9922 23.1403 18.5144 23.2239 16.8461C23.3215 15.1266 23.3215 9.97742 23.2239 8.25794ZM21.0025 18.691C20.6401 19.6019 19.9383 20.3036 19.0228 20.6707C17.6519 21.2145 14.3988 21.089 12.8838 21.089C11.3688 21.089 8.11107 21.2098 6.74478 20.6707C5.83392 20.3083 5.13218 19.6065 4.76505 18.691C4.22132 17.3201 4.3468 14.067 4.3468 12.552C4.3468 11.037 4.22597 7.77927 4.76505 6.41298C5.12753 5.50212 5.82927 4.80038 6.74478 4.43325C8.11572 3.88952 11.3688 4.015 12.8838 4.015C14.3988 4.015 17.6565 3.89417 19.0228 4.43325C19.9337 4.79574 20.6354 5.49747 21.0025 6.41298C21.5463 7.78392 21.4208 11.037 21.4208 12.552C21.4208 14.067 21.5463 17.3247 21.0025 18.691Z" fill="white"/>
</svg>

