<svg width="24" height="25" viewBox="0 0 24 25" fill="none" xmlns="http://www.w3.org/2000/svg">
<g clip-path="url(#clip0_710_5172)">
<path d="M21.3637 7.6257C21.3788 7.83706 21.3788 8.04846 21.3788 8.25982C21.3788 14.7065 16.4721 22.1346 7.50407 22.1346C4.74118 22.1346 2.1746 21.3343 0.015625 19.9454C0.408178 19.9907 0.785582 20.0058 1.19324 20.0058C3.47295 20.0058 5.57155 19.2358 7.2474 17.9223C5.10353 17.877 3.3069 16.473 2.68789 14.5404C2.98987 14.5857 3.2918 14.6159 3.60888 14.6159C4.0467 14.6159 4.48456 14.5555 4.89217 14.4499C2.65773 13.9969 0.981835 12.0342 0.981835 9.66389V9.60353C1.63101 9.96587 2.38596 10.1923 3.18607 10.2225C1.87257 9.34681 1.01204 7.85216 1.01204 6.16121C1.01204 5.25537 1.25356 4.425 1.67632 3.70031C4.07686 6.65945 7.68522 8.59191 11.7313 8.80332C11.6559 8.44097 11.6106 8.06357 11.6106 7.68612C11.6106 4.9987 13.7846 2.80957 16.4871 2.80957C17.8912 2.80957 19.1594 3.39838 20.0502 4.34953C21.1523 4.13817 22.2091 3.73052 23.1452 3.17192C22.7828 4.30427 22.0128 5.25542 21.0013 5.85928C21.9827 5.75365 22.9338 5.48183 23.8095 5.10443C23.1453 6.07064 22.3149 6.93117 21.3637 7.6257Z" fill="white"/>
</g>
<defs>
<clipPath id="clip0_710_5172">
<rect width="23.7939" height="23.7939" fill="white" transform="translate(0.015625 0.574219)"/>
</clipPath>
</defs>
</svg>

