<svg width="13" height="13" viewBox="0 0 13 13" fill="none" xmlns="http://www.w3.org/2000/svg">
  <path
    d="M11.7812 11.375H1.21875C0.545645 11.375 0 10.8294 0 10.1562V2.84375C0 2.17064 0.545645 1.625 1.21875 1.625H11.7812C12.4544 1.625 13 2.17064 13 2.84375V10.1562C13 10.8294 12.4544 11.375 11.7812 11.375ZM2.84375 3.04688C2.05847 3.04688 1.42188 3.68347 1.42188 4.46875C1.42188 5.25403 2.05847 5.89062 2.84375 5.89062C3.62903 5.89062 4.26562 5.25403 4.26562 4.46875C4.26562 3.68347 3.62903 3.04688 2.84375 3.04688ZM1.625 9.75H11.375V6.90625L9.15294 4.68419C9.03396 4.56521 8.84104 4.56521 8.72204 4.68419L5.28125 8.125L3.87169 6.71544C3.75271 6.59646 3.55979 6.59646 3.44079 6.71544L1.625 8.53125V9.75Z"
    fill="#1F2123" />
</svg>
