
                <svg
                  width="28"
                  height="28"
                  viewBox="0 0 38 38"
                  fill="none"
                  xmlns="http://www.w3.org/2000/svg"
                >
                  <g clipPath="url(#clip0_662:1078)">
                    <path
                      d="M19.7893 6.96589C19.7893 5.70633 18.1957 5.23162 17.4938 6.27578C11.0543 15.8563 20.2053 16.2877 20.2053 20.9448C20.2053 22.8305 18.6917 24.3562 16.8334 24.3314C15.0048 24.3075 13.55 22.7559 13.55 20.8946V16.3692C13.55 15.2207 12.1737 14.6635 11.3959 15.4959C10.004 16.9841 8.55859 19.5334 8.55859 22.6384C8.55859 28.2413 13.0368 32.7995 18.5415 32.7995C24.0461 32.7995 28.5243 28.2413 28.5243 22.6384C28.5243 13.6262 19.7893 12.4243 19.7893 6.96589V6.96589Z"
                      fill="white"
                    />
                  </g>
                  <defs>
                    <clipPath id="clip0_662:1078">
                      <rect
                        width="19.9657"
                        height="27.0963"
                        fill="white"
                        transform="translate(8.55859 5.7041)"
                      />
                    </clipPath>
                  </defs>
                </svg>
